<svg id="Layer_1" data-name="Layer 1" xmlns="http://www.w3.org/2000/svg" viewBox="0 0 227 59.72"><path d="M199.41,434.2a5.18,5.18,0,0,1-2.4.58,5.51,5.51,0,0,1-2.48-.58,4.41,4.41,0,0,1-1.33-.91,2.84,2.84,0,0,1-.73-1.34c-.13-.53-.22-1-.29-1.51a5.7,5.7,0,0,1,.15-1.84c.16-.74.3-1.38.43-1.9a20.09,20.09,0,0,1,.68-2.1c.33-.88.59-1.56.79-2s.5-1.18.88-2.11c.3-.72.54-1.27.7-1.65s.36-.9.61-1.54.43-1.15.54-1.54.22-.8.32-1.26a4.29,4.29,0,0,0,.14-1.14,2.25,2.25,0,0,0-.17-.76,1,1,0,0,0-.79-.51,8,8,0,0,0-4,.39,11.7,11.7,0,0,0-3.95,2.24,9.5,9.5,0,0,0-2.6,3.37,6.36,6.36,0,0,0-.46,1.59,5.83,5.83,0,0,0,0,1.76,4.56,4.56,0,0,0,.84,2,8.81,8.81,0,0,0,1.89,1.94.59.59,0,0,1,.26.41.61.61,0,0,1-.13.47.57.57,0,0,1-.4.24.65.65,0,0,1-.47-.11,8.09,8.09,0,0,1-3.06-4.08,6.58,6.58,0,0,1,.37-4.73,10.42,10.42,0,0,1,2.92-3.8,13.32,13.32,0,0,1,4.42-2.5,9.08,9.08,0,0,1,4.56-.39,2.11,2.11,0,0,1,1.66,1.13,2.66,2.66,0,0,1,.3,1.28,7.2,7.2,0,0,1-.12,1.49,15.53,15.53,0,0,1-.56,1.93c-.29.82-.54,1.48-.75,2l-.93,2.28c-.29.67-.51,1.18-.65,1.53s-.35.84-.6,1.48-.45,1.16-.56,1.54-.28.85-.46,1.43a8.25,8.25,0,0,0-.36,1.4c-.06.36-.12.78-.18,1.25a3.31,3.31,0,0,0,0,1.18,7,7,0,0,0,.26.94,2,2,0,0,0,.51.82,3.11,3.11,0,0,0,.81.58,4.22,4.22,0,0,0,3.79,0q2.43-1.2,4.6-5.39A42.81,42.81,0,0,0,207,417.26a.58.58,0,0,1,.27-.38.61.61,0,0,1,.85.13.59.59,0,0,1,.13.44q-.19,1.64-.69,4.83c-.2,1.16-.33,2.05-.41,2.65s-.17,1.37-.27,2.33a16.28,16.28,0,0,0-.1,2.25,8.39,8.39,0,0,0,.24,1.69,3.28,3.28,0,0,0,.61,1.37,2.8,2.8,0,0,0,2.3.94,4.3,4.3,0,0,0,2.55-.88,8.3,8.3,0,0,0,2.16-2.37,22,22,0,0,0,1.63-3.21,25.39,25.39,0,0,0,1.15-3.55,23.22,23.22,0,0,0,.74-7.85q-.33-3.52-1.89-4.32a.54.54,0,0,1-.36-.51.6.6,0,0,1,.29-.58.56.56,0,0,1,.62,0,4.63,4.63,0,0,1,2.17,3,15.11,15.11,0,0,1,.52,5,29.33,29.33,0,0,1-.87,5.58,28.75,28.75,0,0,1-1,3.22,21.84,21.84,0,0,1-1.39,3,15,15,0,0,1-1.75,2.5,7.26,7.26,0,0,1-2.14,1.67,5,5,0,0,1-2.47.57,4,4,0,0,1-3.24-1.37q-1.4-1.68-1.08-5.79a.3.3,0,0,0-.24-.33.29.29,0,0,0-.38.17Q202.51,432.69,199.41,434.2Z" transform="translate(-184.14 -406.46)"/><path d="M238.79,429.06a.54.54,0,0,1,.43.2.63.63,0,0,1,.16.46.59.59,0,0,1-.21.43l-.56.49c-.23.2-.65.52-1.26,1a21.19,21.19,0,0,1-1.85,1.23,19.84,19.84,0,0,1-2.21,1.09,11.3,11.3,0,0,1-2.44.75,7.61,7.61,0,0,1-2.48,0,5.72,5.72,0,0,1-2.37-.88,4.89,4.89,0,0,1-1.61-1.68.61.61,0,0,0-.52-.31.57.57,0,0,0-.54.27,10.83,10.83,0,0,1-1.83,2.18,3,3,0,0,1-1.84.91h0a1.6,1.6,0,0,1-.81-.27,1.58,1.58,0,0,1-.54-.66,4,4,0,0,1,.22-3.51,8.23,8.23,0,0,1,2.22-2.82,8,8,0,0,1,3.23-1.59.61.61,0,0,1,.75.78.61.61,0,0,1-.46.44,6.72,6.72,0,0,0-2.72,1.33,6.84,6.84,0,0,0-1.87,2.39,2.75,2.75,0,0,0-.24,2.4c.1.16.17.24.22.24.27.18.8-.32,1.58-1.49a26.07,26.07,0,0,0,2.11-3.79.58.58,0,0,1,.68-.36.57.57,0,0,1,.52.53c0,.08,0,.19.06.32s.1.39.21.75a9.39,9.39,0,0,0,.38,1,5.34,5.34,0,0,0,.63,1,3.52,3.52,0,0,0,.88.85,4.58,4.58,0,0,0,2.06.72,6.58,6.58,0,0,0,2.18-.12,11.53,11.53,0,0,0,2.2-.76,16.52,16.52,0,0,0,2-1c.56-.35,1.11-.73,1.65-1.13s.92-.68,1.12-.85a5.17,5.17,0,0,0,.44-.4A.63.63,0,0,1,238.79,429.06Z" transform="translate(-184.14 -406.46)"/><path d="M238.77,426.72a.57.57,0,0,1-.6-.48.58.58,0,0,1,.31-.72,4.36,4.36,0,0,0,1.2-.89.61.61,0,0,1,.44-.19.65.65,0,0,1,.65.61.55.55,0,0,1-.18.44,5.68,5.68,0,0,1-1.51,1.13A.6.6,0,0,1,238.77,426.72Zm14.89,1.7a.62.62,0,0,1,.44.18.58.58,0,0,1,.19.44.68.68,0,0,1-.16.46c-.19.19-.44.43-.75.71s-.86.73-1.67,1.37a25.06,25.06,0,0,1-2.41,1.68,15.25,15.25,0,0,1-2.83,1.3,9.11,9.11,0,0,1-3.07.58,6.28,6.28,0,0,1-4-1.3,2.59,2.59,0,0,1-1-1.27,4.06,4.06,0,0,1-.27-1.46,6.05,6.05,0,0,1,.25-1.44,9.69,9.69,0,0,1,.34-1.08c.09-.21.17-.38.23-.51a.65.65,0,0,1,.39-.28.57.57,0,0,1,.46,0,.61.61,0,0,1,.31.36.53.53,0,0,1,0,.46c0,.08-.09.2-.16.35a7.37,7.37,0,0,0-.29.8,5.31,5.31,0,0,0-.22,1.08,2.86,2.86,0,0,0,.1,1.07,1.58,1.58,0,0,0,.59.88,5.19,5.19,0,0,0,2.35.94,6.67,6.67,0,0,0,2.49-.1,13.34,13.34,0,0,0,2.45-.9,17.58,17.58,0,0,0,2.2-1.26c.64-.44,1.24-.89,1.83-1.37s1-.84,1.23-1.07.4-.39.48-.47A.61.61,0,0,1,253.66,428.42Z" transform="translate(-184.14 -406.46)"/><path d="M281.94,430.46a4.9,4.9,0,0,1-.41.56,12.31,12.31,0,0,1-1.16,1.2,14.29,14.29,0,0,1-1.84,1.49,10.47,10.47,0,0,1-2.44,1.19,9,9,0,0,1-3,.53,9.38,9.38,0,0,1-3.41-.63,10.1,10.1,0,0,1-5.77-4.65,10.58,10.58,0,0,1-.69-7.49,21.44,21.44,0,0,1,2.46-5.92,28.66,28.66,0,0,1,4-5.34,20.73,20.73,0,0,1,4.69-3.7,7.6,7.6,0,0,1,4.39-1.22,4.84,4.84,0,0,1,3.7,1.76,1.58,1.58,0,0,0,.76.55,1.77,1.77,0,0,0,.94.07,12.59,12.59,0,0,1,2.93-.38.65.65,0,0,1,.46.18.6.6,0,0,1,0,.88.61.61,0,0,1-.43.18,11.54,11.54,0,0,0-3.41.56.62.62,0,0,0-.46.67,9.68,9.68,0,0,1-1.33,4.11,13,13,0,0,1-2.95,3.65,5.51,5.51,0,0,1-3.28,1.53,1.88,1.88,0,0,1-1.73-.82q-.72-1.17.51-3.36a15.82,15.82,0,0,1,6.29-5.88,1,1,0,0,0,.54-.83,1,1,0,0,0-.38-.9,4.45,4.45,0,0,0-2.28-.72,6.69,6.69,0,0,0-3.8,1.13,20.51,20.51,0,0,0-4.26,3.37,25.92,25.92,0,0,0-3.78,5,20.05,20.05,0,0,0-2.36,5.73,13.34,13.34,0,0,0-.33,2.28,9,9,0,0,0,.21,2.36,7.7,7.7,0,0,0,.88,2.33,7.4,7.4,0,0,0,1.88,2.05,10.7,10.7,0,0,0,3,1.63,8.32,8.32,0,0,0,2.63.56,7.78,7.78,0,0,0,2.3-.22,9.61,9.61,0,0,0,2-.78,10.25,10.25,0,0,0,1.61-1,12.41,12.41,0,0,0,1.2-1.1c.37-.4.63-.69.77-.86s.24-.3.32-.42a.61.61,0,0,1,.4-.26.59.59,0,0,1,.46.1.55.55,0,0,1,.27.39A.6.6,0,0,1,281.94,430.46ZM275.68,419c1,0,2.14-.72,3.44-2.12a10.91,10.91,0,0,0,2.63-4.45.68.68,0,0,0-1-.77,14.65,14.65,0,0,0-5.16,5A4.47,4.47,0,0,0,275,418c-.08.4-.07.66,0,.77S275.36,419,275.68,419Z" transform="translate(-184.14 -406.46)"/><path d="M303.73,428.59a.58.58,0,0,1,.45.19.64.64,0,0,1,.18.44.65.65,0,0,1-.19.45,15.82,15.82,0,0,1-5.74,3.47,19,19,0,0,1-6.24,1.21,5.52,5.52,0,0,1-2.64-.51,3.39,3.39,0,0,1-.89-.69,1.84,1.84,0,0,1-.43-.83,5.24,5.24,0,0,1-.11-.8,2.28,2.28,0,0,1,.16-.83q.17-.46.27-.72l.3-.64c0-.09,0-.15-.12-.17a.66.66,0,0,0-.26.1,5.25,5.25,0,0,1-2.83.65,2.92,2.92,0,0,1-1.32-.27.62.62,0,0,1-.48,0,.58.58,0,0,1-.34-.63,2.41,2.41,0,0,1-.5-1,3.1,3.1,0,0,1,.05-1.95,3.26,3.26,0,0,1,1.17-1.58c.67-.4,1.2-.42,1.59,0s.35,1.74-.53,3.72a.4.4,0,0,0,.07.33.35.35,0,0,0,.29.2,5.11,5.11,0,0,0,2.61-.7,5.55,5.55,0,0,1,.58-.3,1.58,1.58,0,0,1,.58-.07,1.16,1.16,0,0,1,.67.25.8.8,0,0,1,.33.63,1.54,1.54,0,0,1-.08.66c-.07.18-.19.43-.35.75a4,4,0,0,0-.59,1.77,1.33,1.33,0,0,0,.81,1.11,3.34,3.34,0,0,0,1.56.34,12.62,12.62,0,0,0,2.54-.19,22.82,22.82,0,0,0,3-.72,16.23,16.23,0,0,0,3.16-1.38,13.33,13.33,0,0,0,2.79-2.05A.63.63,0,0,1,303.73,428.59Zm-19.56-1.13a9.77,9.77,0,0,0,.68-1.9A1.9,1.9,0,0,0,284.17,427.46Z" transform="translate(-184.14 -406.46)"/><path d="M322.87,428.68a.63.63,0,0,1,.42.23.62.62,0,0,1,.15.47.61.61,0,0,1-.24.43c-.24.19-.54.42-.89.67s-1,.69-2,1.29a29.94,29.94,0,0,1-3,1.57,22.62,22.62,0,0,1-3.61,1.22,16,16,0,0,1-4,.56,12.16,12.16,0,0,1-4.7-.89,4.51,4.51,0,0,1-1.21-.69,3.39,3.39,0,0,1-.73-.76,2.71,2.71,0,0,1-.35-.8,2.59,2.59,0,0,1-.1-.73,3.31,3.31,0,0,1,.09-.62,5.12,5.12,0,0,1,1.24-2.23,7.48,7.48,0,0,1,2.2-1.73,4.34,4.34,0,0,1,2.17-.58,1.53,1.53,0,0,1,1.12.46,1.68,1.68,0,0,1,.51,1.13,2.27,2.27,0,0,1-1.29,2.08,7.38,7.38,0,0,1-4.47,1.13.26.26,0,0,0-.21.05.16.16,0,0,0-.07.19c-.12.82.41,1.46,1.58,1.92a10.31,10.31,0,0,0,3.36.76,14.11,14.11,0,0,0,3.36-.18,19.39,19.39,0,0,0,3.19-.89,23.38,23.38,0,0,0,2.8-1.21c.77-.41,1.53-.84,2.25-1.3s1.23-.78,1.49-1,.45-.34.57-.43A.67.67,0,0,1,322.87,428.68Zm-18.22.75c-.21.29-.12.41.26.38a7.17,7.17,0,0,0,2.57-.86c.16-.1.29-.18.41-.24.49-.34.72-.64.69-.91a.46.46,0,0,0-.12-.35.56.56,0,0,0-.31-.11,3.26,3.26,0,0,0-1.79.55A5.61,5.61,0,0,0,304.65,429.43Z" transform="translate(-184.14 -406.46)"/><path d="M341.44,429.06a.55.55,0,0,1,.43.2.68.68,0,0,1,.16.46.59.59,0,0,1-.21.43l-.56.49c-.23.2-.65.52-1.26,1s-1.23.86-1.85,1.23a19.84,19.84,0,0,1-2.21,1.09,11.37,11.37,0,0,1-2.45.75,7.54,7.54,0,0,1-2.47,0,5.72,5.72,0,0,1-2.37-.88,4.8,4.8,0,0,1-1.61-1.68.63.63,0,0,0-.52-.31.57.57,0,0,0-.54.27,10.83,10.83,0,0,1-1.83,2.18,3,3,0,0,1-1.84.91h0a1.6,1.6,0,0,1-.81-.27,1.44,1.44,0,0,1-.54-.66,3.92,3.92,0,0,1,.22-3.51,8.23,8.23,0,0,1,2.22-2.82,8,8,0,0,1,3.23-1.59.58.58,0,0,1,.61.16.59.59,0,0,1,.14.62.62.62,0,0,1-.47.44,6.74,6.74,0,0,0-2.71,1.33,6.84,6.84,0,0,0-1.87,2.39,2.75,2.75,0,0,0-.24,2.4c.1.16.17.24.22.24.27.18.8-.32,1.58-1.49a27,27,0,0,0,2.11-3.79.57.57,0,0,1,.67-.36.58.58,0,0,1,.53.53c0,.08,0,.19.06.32a7,7,0,0,0,.21.75,9.39,9.39,0,0,0,.38,1,5.25,5.25,0,0,0,.62,1,3.73,3.73,0,0,0,.89.85,4.54,4.54,0,0,0,2.05.72,6.64,6.64,0,0,0,2.19-.12,11.45,11.45,0,0,0,2.19-.76,16,16,0,0,0,2-1c.56-.35,1.11-.73,1.65-1.13s.92-.68,1.12-.85a5.17,5.17,0,0,0,.44-.4A.63.63,0,0,1,341.44,429.06Z" transform="translate(-184.14 -406.46)"/><path d="M356.65,428.37a.65.65,0,0,1,.46.18.58.58,0,0,1,.19.45.61.61,0,0,1-.19.45c-.18.19-.41.43-.71.71s-.84.73-1.63,1.36a26.66,26.66,0,0,1-2.35,1.65,15.91,15.91,0,0,1-2.71,1.31,8.28,8.28,0,0,1-2.9.59,5.5,5.5,0,0,1-1.94-.36,5.64,5.64,0,0,1-3.19-3.63,17.53,17.53,0,0,1-.77-7.1.46.46,0,0,0-.17-.31.44.44,0,0,0-.33-.1l-2.07.16-1.82.14-1.41.1-1,.06-.36,0h0a.54.54,0,0,1-.45-.15.58.58,0,0,1-.19-.45.65.65,0,0,1,.16-.45.57.57,0,0,1,.44-.2l.38,0,1-.07,1.46-.11,1.91-.14,2.16-.16c.29,0,.47-.26.53-.67.14-1,.33-2,.56-2.91s.5-1.84.81-2.71a8.81,8.81,0,0,1,1-2.13,2.08,2.08,0,0,1,1.21-1c.64-.12,1.15.2,1.52,1a5.11,5.11,0,0,1-.08,2.84,34.25,34.25,0,0,1-1.39,4.81.41.41,0,0,0,0,.3.35.35,0,0,0,.08.15.21.21,0,0,0,.12,0q5.49-.33,7.92-.33a.56.56,0,0,1,.44.19.62.62,0,0,1,.18.44.64.64,0,0,1-.18.45.6.6,0,0,1-.44.19q-3.75,0-8.35.36a.53.53,0,0,0-.3.05.41.41,0,0,0-.16.21q-.6,1.76-1.8,4.78.6,4.25,3,5.18a4.1,4.1,0,0,0,1.51.27,6.1,6.1,0,0,0,1.59-.22,10.65,10.65,0,0,0,1.64-.6,17,17,0,0,0,3-1.78c.49-.35.9-.66,1.25-.94s.67-.57,1-.86l.65-.6.25-.24A.57.57,0,0,1,356.65,428.37Zm-14.54-3c.14,0,.32-.3.54-.89s.28-.94.18-1.06a.56.56,0,0,0-.62.05,1.15,1.15,0,0,0-.18.59,4.52,4.52,0,0,0,0,.89Q342,425.35,342.11,425.35Zm.31-3.75c-.06.37,0,.56.17.56a2.34,2.34,0,0,0,.38,0,.44.44,0,0,0,.44-.41c1.45-4.25,2-6.68,1.75-7.27a.29.29,0,0,0-.19-.18.25.25,0,0,0-.24.06,8.32,8.32,0,0,0-1.25,2.65A25,25,0,0,0,342.42,421.6Z" transform="translate(-184.14 -406.46)"/><path d="M356.17,426.72a.57.57,0,0,1-.6-.48.59.59,0,0,1,.32-.72,4.68,4.68,0,0,0,1.2-.89.58.58,0,0,1,.44-.19.6.6,0,0,1,.44.18.61.61,0,0,1,.21.43.55.55,0,0,1-.18.44,5.68,5.68,0,0,1-1.51,1.13A.6.6,0,0,1,356.17,426.72Zm14.9,1.7a.64.64,0,0,1,.44.18.58.58,0,0,1,.19.44.64.64,0,0,1-.17.46l-.74.71c-.3.28-.86.73-1.67,1.37a26.37,26.37,0,0,1-2.41,1.68,15.25,15.25,0,0,1-2.83,1.3,9.11,9.11,0,0,1-3.07.58,6.24,6.24,0,0,1-4-1.3,2.59,2.59,0,0,1-1-1.27,3.85,3.85,0,0,1-.27-1.46,6.56,6.56,0,0,1,.24-1.44c.15-.51.26-.87.35-1.08s.16-.38.23-.51a.63.63,0,0,1,.38-.28.59.59,0,0,1,.47,0,.61.61,0,0,1,.31.36.53.53,0,0,1,0,.46l-.16.35a7.37,7.37,0,0,0-.29.8,6.18,6.18,0,0,0-.23,1.08A3.1,3.1,0,0,0,357,432a1.58,1.58,0,0,0,.59.88,5.14,5.14,0,0,0,2.35.94,6.68,6.68,0,0,0,2.49-.1,13.25,13.25,0,0,0,2.44-.9,17.75,17.75,0,0,0,2.21-1.26c.63-.44,1.24-.89,1.83-1.37s1-.84,1.23-1.07l.48-.47A.61.61,0,0,1,371.07,428.42Z" transform="translate(-184.14 -406.46)"/><path d="M391.48,428.8a.59.59,0,0,1,.44.2.63.63,0,0,1,.18.45.64.64,0,0,1-.17.46,15.92,15.92,0,0,1-4.72,3.11,13.16,13.16,0,0,1-5.67,1.26,5.92,5.92,0,0,1-4-1.35.42.42,0,0,0-.37-.15.45.45,0,0,0-.37.18,8,8,0,0,1-1.8,1.68,2.69,2.69,0,0,1-1.44.45,2.09,2.09,0,0,1-1.13-.33l-.07-.08a3.94,3.94,0,0,1-.93-1.33,7.09,7.09,0,0,1-.5-1.57,12.75,12.75,0,0,1-.18-1.57,9.83,9.83,0,0,1,0-1.17c0-.22,0-.4,0-.55a.62.62,0,0,1,.69-.55.6.6,0,0,1,.42.23.56.56,0,0,1,.14.44,11.54,11.54,0,0,0,.11,2.76,4,4,0,0,0,1,2.35c.46.24,1.06,0,1.78-.6a7.91,7.91,0,0,0,1.36-1.63.25.25,0,0,0,0-.24,5.06,5.06,0,0,1-.52-1.87,2.53,2.53,0,0,1,.33-1.58,1.34,1.34,0,0,1,.84-.58,1.42,1.42,0,0,1,1,.14,1.31,1.31,0,0,1,.54.45,1.12,1.12,0,0,1,.2.66,5.71,5.71,0,0,1-.81,2.78.49.49,0,0,0,0,.24.34.34,0,0,1,.12.12,4.43,4.43,0,0,0,3.53,1.39,11.93,11.93,0,0,0,5.11-1.16A14.14,14.14,0,0,0,391,429,.63.63,0,0,1,391.48,428.8Zm-14.26.92a2.53,2.53,0,0,0,.24-1.2.15.15,0,0,0-.14-.1.17.17,0,0,0-.15.07,1.79,1.79,0,0,0,0,1.23l.06,0S377.22,429.73,377.22,429.72Z" transform="translate(-184.14 -406.46)"/><path d="M410.57,428.68a.63.63,0,0,1,.42.23.61.61,0,0,1,.14.47.55.55,0,0,1-.24.43c-.24.19-.53.42-.88.67s-1,.69-2,1.29a30.07,30.07,0,0,1-3,1.57,22.28,22.28,0,0,1-3.61,1.22,15.88,15.88,0,0,1-4,.56,12.16,12.16,0,0,1-4.7-.89,4.58,4.58,0,0,1-1.22-.69,3.64,3.64,0,0,1-.73-.76,3,3,0,0,1-.35-.8,2.54,2.54,0,0,1-.09-.73,3.29,3.29,0,0,1,.08-.62,5.14,5.14,0,0,1,1.25-2.23,7.48,7.48,0,0,1,2.2-1.73,4.31,4.31,0,0,1,2.17-.58,1.51,1.51,0,0,1,1.11.46,1.64,1.64,0,0,1,.52,1.13,2.26,2.26,0,0,1-1.3,2.08,7.35,7.35,0,0,1-4.46,1.13.29.29,0,0,0-.22.05.19.19,0,0,0-.07.19q-.17,1.23,1.59,1.92a10.31,10.31,0,0,0,3.36.76,14.11,14.11,0,0,0,3.36-.18,19.39,19.39,0,0,0,3.19-.89,22.5,22.5,0,0,0,2.79-1.21c.78-.41,1.53-.84,2.26-1.3s1.22-.78,1.49-1l.56-.43A.7.7,0,0,1,410.57,428.68Zm-18.23.75c-.21.29-.12.41.27.38a7.13,7.13,0,0,0,2.56-.86l.41-.24c.5-.34.73-.64.7-.91a.56.56,0,0,0-.12-.35.59.59,0,0,0-.31-.11,3.24,3.24,0,0,0-1.79.55A5.76,5.76,0,0,0,392.34,429.43Z" transform="translate(-184.14 -406.46)"/><path d="M265.19,463.43l1.31-.76a3.16,3.16,0,0,0,3.1,2.07c1.51,0,2.7-.81,2.7-2.25,0-3.35-6.57-2.27-6.57-6.62a3.52,3.52,0,0,1,3.76-3.55,4.61,4.61,0,0,1,3.6,1.68L272,455a2.86,2.86,0,0,0-2.44-1.19c-1.26,0-2.36.65-2.36,2,0,3.22,6.57,2.09,6.57,6.68,0,2.37-1.86,3.74-4.16,3.74A4.64,4.64,0,0,1,265.19,463.43Z" transform="translate(-184.14 -406.46)"/><path d="M283.51,453.94h-3.74V466h-1.44V453.94H274.6V452.5h8.91Z" transform="translate(-184.14 -406.46)"/><path d="M285.28,461.57V452.5h1.44v8.84a3.64,3.64,0,0,0,7.27,0V452.5h1.44v9.07c0,2.65-2.13,4.61-5.08,4.61S285.28,464.22,285.28,461.57Z" transform="translate(-184.14 -406.46)"/><path d="M298.65,452.5h3.69a6.75,6.75,0,0,1,0,13.5h-3.69Zm3.67,12.06a5.31,5.31,0,1,0,0-10.62h-2.25v10.62Z" transform="translate(-184.14 -406.46)"/><path d="M312,452.5h1.44V466H312Z" transform="translate(-184.14 -406.46)"/><path d="M316.22,459.25a6.93,6.93,0,1,1,6.93,6.93A6.93,6.93,0,0,1,316.22,459.25Zm12.42,0a5.49,5.49,0,1,0-5.49,5.49A5.45,5.45,0,0,0,328.64,459.25Z" transform="translate(-184.14 -406.46)"/></svg>